<svg width="189" height="29" viewBox="0 0 189 29" fill="none" xmlns="http://www.w3.org/2000/svg">
<path d="M0 0.166667C0 0.0746196 0.0715101 0 0.159722 0H5.27083C5.35905 0 5.43056 0.0746192 5.43056 0.166667V28.8333C5.43056 28.9254 5.35905 29 5.27083 29H0.159722C0.0715102 29 0 28.9254 0 28.8333V0.166667Z" fill="#A69F93"/>
<path d="M17.5694 0.166667C17.5694 0.0746196 17.641 0 17.7292 0H22.8403C22.9285 0 23 0.0746192 23 0.166667V28.8333C23 28.9254 22.9285 29 22.8403 29H17.7292C17.641 29 17.5694 28.9254 17.5694 28.8333V0.166667Z" fill="#A69F93"/>
<path d="M7.66667 10.8333C7.66667 10.7413 7.73818 10.6667 7.82639 10.6667H15.1736C15.2618 10.6667 15.3333 10.7413 15.3333 10.8333V18.5C15.3333 18.592 15.2618 18.6667 15.1736 18.6667H7.82639C7.73818 18.6667 7.66667 18.592 7.66667 18.5V10.8333Z" fill="#A69F93"/>
<path d="M10.373 16.3867L10.304 14.8907L12.8723 12.0667H14.2523L11.937 14.6667L11.247 15.4347L10.373 16.3867ZM9.26133 17.6667V12.0667H10.4957V17.6667H9.26133ZM12.9337 17.6667L11.0247 15.2267L11.8373 14.3067L14.3827 17.6667H12.9337Z" fill="white"/>
<path d="M33.9005 18.1467V22.7373H33.9347L37.7054 18.1467H41.0666L36.6305 23.28L41.2372 28.8533H37.876L33.9347 23.8227H33.9005V28.8533H31V18.1467H33.9005Z" fill="#A69F93"/>
<path d="M48.7243 20.156V22.3413H53.4505V24.2333H48.7243V26.844H53.7917V28.8533H45.8238V18.1467H53.7917V20.156H48.7243Z" fill="#A69F93"/>
<path d="M62.0505 18.1467V26.7853H67.3056V28.8533H59.0646V18.1467H62.0505Z" fill="#A69F93"/>
<path d="M75.308 18.1467V26.7853H80.5631V28.8533H72.3222V18.1467H75.308Z" fill="#A69F93"/>
<path d="M85.2187 18.1467L87.6415 22.7373H87.6756L90.0985 18.1467H93.3402L89.1089 24.7467V28.8533H86.123V24.7467L81.9087 18.1467H85.2187Z" fill="#A69F93"/>
<path d="M113.197 24.2333H108.88V28.8533H105.98V18.1467H108.88V22.3413H113.197V18.1467H116.098V28.8533H113.197V24.2333Z" fill="#A69F93"/>
<path d="M122.475 19.4813C123.624 18.4938 125.159 18 127.082 18C129.004 18 130.534 18.4938 131.671 19.4813C132.82 20.4689 133.395 21.8084 133.395 23.5C133.395 25.1916 132.82 26.5311 131.671 27.5187C130.534 28.5062 129.004 29 127.082 29C125.159 29 123.624 28.5062 122.475 27.5187C121.338 26.5311 120.769 25.1916 120.769 23.5C120.769 21.8084 121.338 20.4689 122.475 19.4813ZM124.608 26.0667C125.199 26.6533 126.024 26.9467 127.082 26.9467C128.14 26.9467 128.959 26.6533 129.539 26.0667C130.13 25.48 130.426 24.6244 130.426 23.5C130.426 22.3756 130.13 21.52 129.539 20.9333C128.959 20.3467 128.14 20.0533 127.082 20.0533C126.024 20.0533 125.199 20.3467 124.608 20.9333C124.028 21.52 123.738 22.3756 123.738 23.5C123.738 24.6244 124.028 25.48 124.608 26.0667Z" fill="#A69F93"/>
<path d="M138.06 18.22C139.243 18.0733 140.494 18 141.814 18C145.453 18 147.273 19.1636 147.273 21.4907C147.273 22.752 146.847 23.7102 145.994 24.3653C145.152 25.0107 143.912 25.3333 142.274 25.3333C141.865 25.3333 141.41 25.3138 140.909 25.2747V28.8533H138.06V18.22ZM140.909 23.4267C141.273 23.4756 141.632 23.5 141.984 23.5C142.803 23.5 143.434 23.3387 143.878 23.016C144.333 22.6836 144.561 22.224 144.561 21.6373C144.561 20.4738 143.702 19.892 141.984 19.892C141.609 19.892 141.251 19.9213 140.909 19.98V23.4267Z" fill="#A69F93"/>
<path d="M151.851 18.22C153.034 18.0733 154.285 18 155.604 18C159.244 18 161.064 19.1636 161.064 21.4907C161.064 22.752 160.638 23.7102 159.784 24.3653C158.943 25.0107 157.703 25.3333 156.065 25.3333C155.655 25.3333 155.2 25.3138 154.7 25.2747V28.8533H151.851V18.22ZM154.7 23.4267C155.064 23.4756 155.422 23.5 155.775 23.5C156.594 23.5 157.225 23.3387 157.669 23.016C158.124 22.6836 158.351 22.224 158.351 21.6373C158.351 20.4738 157.492 19.892 155.775 19.892C155.4 19.892 155.041 19.9213 154.7 19.98V23.4267Z" fill="#A69F93"/>
<path d="M168.542 20.156V22.3413H173.268V24.2333H168.542V26.844H173.609V28.8533H165.641V18.1467H173.609V20.156H168.542Z" fill="#A69F93"/>
<path d="M178.882 28.8533V18.1467H181.715L186.134 24.7173H186.168V18.1467H189V28.8533H186.168L181.749 22.2827H181.715V28.8533H178.882Z" fill="#A69F93"/>
</svg>
