<svg width="23" height="29" viewBox="0 0 23 29" fill="none" xmlns="http://www.w3.org/2000/svg">
<path d="M0 0.166667C0 0.0746196 0.0715101 0 0.159722 0H5.27083C5.35905 0 5.43056 0.0746192 5.43056 0.166667V28.8333C5.43056 28.9254 5.35905 29 5.27083 29H0.159722C0.0715102 29 0 28.9254 0 28.8333V0.166667Z" fill="#A69F93"/>
<path d="M17.5694 0.166667C17.5694 0.0746196 17.641 0 17.7292 0H22.8403C22.9285 0 23 0.0746192 23 0.166667V28.8333C23 28.9254 22.9285 29 22.8403 29H17.7292C17.641 29 17.5694 28.9254 17.5694 28.8333V0.166667Z" fill="#A69F93"/>
<path d="M7.66667 10.8333C7.66667 10.7413 7.73818 10.6667 7.82639 10.6667H15.1736C15.2618 10.6667 15.3333 10.7413 15.3333 10.8333V18.5C15.3333 18.592 15.2618 18.6667 15.1736 18.6667H7.82639C7.73818 18.6667 7.66667 18.592 7.66667 18.5V10.8333Z" fill="#A69F93"/>
<path d="M10.373 16.3867L10.304 14.8907L12.8723 12.0667H14.2523L11.937 14.6667L11.247 15.4347L10.373 16.3867ZM9.26133 17.6667V12.0667H10.4957V17.6667H9.26133ZM12.9337 17.6667L11.0247 15.2267L11.8373 14.3067L14.3827 17.6667H12.9337Z" fill="white"/>
</svg>
