<svg width="84" height="59" viewBox="0 0 84 59" fill="none" xmlns="http://www.w3.org/2000/svg">
<path d="M23.5 0.258621C23.5 0.115789 23.615 0 23.7569 0H31.9792C32.1211 0 32.2361 0.115788 32.2361 0.258621V44.7414C32.2361 44.8842 32.1211 45 31.9792 45H23.7569C23.615 45 23.5 44.8842 23.5 44.7414V0.258621Z" fill="#A69F93"/>
<path d="M51.7639 0.258621C51.7639 0.115789 51.8789 0 52.0208 0H60.2431C60.385 0 60.5 0.115788 60.5 0.258621V44.7414C60.5 44.8842 60.385 45 60.2431 45H52.0208C51.8789 45 51.7639 44.8842 51.7639 44.7414V0.258621Z" fill="#A69F93"/>
<path d="M35.8333 16.8103C35.8333 16.6675 35.9484 16.5517 36.0903 16.5517H47.9097C48.0516 16.5517 48.1667 16.6675 48.1667 16.8103V28.7069C48.1667 28.8497 48.0516 28.9655 47.9097 28.9655H36.0903C35.9484 28.9655 35.8333 28.8497 35.8333 28.7069V16.8103Z" fill="#A69F93"/>
<path d="M40.187 25.4276L40.076 23.1062L44.2077 18.7241H46.4277L42.703 22.7586L41.593 23.9503L40.187 25.4276ZM38.3987 27.4138V18.7241H40.3843V27.4138H38.3987ZM44.3063 27.4138L41.2353 23.6276L42.5427 22.2L46.6373 27.4138H44.3063Z" fill="white"/>
<path d="M1.54206 53.08V55.584H1.56021L3.56489 53.08H5.35187L2.99342 55.88L5.44258 58.92H3.6556L1.56021 56.176H1.54206V58.92H0V53.08H1.54206Z" fill="#A69F93"/>
<path d="M9.42305 54.176V55.368H11.9357V56.4H9.42305V57.824H12.1171V58.92H7.88099V53.08H12.1171V54.176H9.42305Z" fill="#A69F93"/>
<path d="M16.5079 53.08V57.792H19.3017V58.92H14.9204V53.08H16.5079Z" fill="#A69F93"/>
<path d="M23.5562 53.08V57.792H26.35V58.92H21.9687V53.08H23.5562Z" fill="#A69F93"/>
<path d="M28.8251 53.08L30.1132 55.584H30.1314L31.4194 53.08H33.1429L30.8933 56.68V58.92H29.3059V56.68L27.0654 53.08H28.8251Z" fill="#A69F93"/>
<path d="M43.6996 56.4H41.4047V58.92H39.8626V53.08H41.4047V55.368H43.6996V53.08H45.2417V58.92H43.6996V56.4Z" fill="#A69F93"/>
<path d="M48.6323 53.808C49.2431 53.2693 50.0595 53 51.0815 53C52.1035 53 52.9168 53.2693 53.5215 53.808C54.1323 54.3467 54.4377 55.0773 54.4377 56C54.4377 56.9227 54.1323 57.6533 53.5215 58.192C52.9168 58.7307 52.1035 59 51.0815 59C50.0595 59 49.2431 58.7307 48.6323 58.192C48.0276 57.6533 47.7252 56.9227 47.7252 56C47.7252 55.0773 48.0276 54.3467 48.6323 53.808ZM49.7662 57.4C50.0806 57.72 50.5191 57.88 51.0815 57.88C51.6439 57.88 52.0793 57.72 52.3877 57.4C52.7021 57.08 52.8594 56.6133 52.8594 56C52.8594 55.3867 52.7021 54.92 52.3877 54.6C52.0793 54.28 51.6439 54.12 51.0815 54.12C50.5191 54.12 50.0806 54.28 49.7662 54.6C49.4578 54.92 49.3035 55.3867 49.3035 56C49.3035 56.6133 49.4578 57.08 49.7662 57.4Z" fill="#A69F93"/>
<path d="M56.9179 53.12C57.5469 53.04 58.2121 53 58.9135 53C60.8487 53 61.8163 53.6347 61.8163 54.904C61.8163 55.592 61.5895 56.1147 61.1359 56.472C60.6884 56.824 60.0293 57 59.1585 57C58.9408 57 58.6989 56.9893 58.4328 56.968V58.92H56.9179V53.12ZM58.4328 55.96C58.6263 55.9867 58.8168 56 59.0043 56C59.4397 56 59.7753 55.912 60.0111 55.736C60.253 55.5547 60.374 55.304 60.374 54.984C60.374 54.3493 59.9174 54.032 59.0043 54.032C58.8047 54.032 58.6142 54.048 58.4328 54.08V55.96Z" fill="#A69F93"/>
<path d="M64.2497 53.12C64.8786 53.04 65.5438 53 66.2453 53C68.1805 53 69.148 53.6347 69.148 54.904C69.148 55.592 68.9212 56.1147 68.4677 56.472C68.0202 56.824 67.361 57 66.4902 57C66.2725 57 66.0306 56.9893 65.7646 56.968V58.92H64.2497V53.12ZM65.7646 55.96C65.9581 55.9867 66.1486 56 66.336 56C66.7714 56 67.1071 55.912 67.3429 55.736C67.5848 55.5547 67.7057 55.304 67.7057 54.984C67.7057 54.3493 67.2492 54.032 66.336 54.032C66.1365 54.032 65.946 54.048 65.7646 54.08V55.96Z" fill="#A69F93"/>
<path d="M73.1235 54.176V55.368H75.6362V56.4H73.1235V57.824H75.8176V58.92H71.5815V53.08H75.8176V54.176H73.1235Z" fill="#A69F93"/>
<path d="M78.6209 58.92V53.08H80.1267L82.4761 56.664H82.4942V53.08H84V58.92H82.4942L80.1448 55.336H80.1267V58.92H78.6209Z" fill="#A69F93"/>
</svg>
