<svg width="295" height="21" viewBox="0 0 295 21" fill="none" xmlns="http://www.w3.org/2000/svg">
<path d="M5.89722 0.28V9.044H5.96072L12.9771 0.28H19.2315L10.977 10.08L19.549 20.72H13.2946L5.96072 11.116H5.89722V20.72H0.5V0.28H5.89722Z" fill="#A69F93"/>
<path d="M33.4807 4.116V8.288H42.275V11.9H33.4807V16.884H42.91V20.72H28.0835V0.28H42.91V4.116H33.4807Z" fill="#A69F93"/>
<path d="M58.2775 0.28V16.772H68.056V20.72H52.7215V0.28H58.2775Z" fill="#A69F93"/>
<path d="M82.9466 0.28V16.772H92.7251V20.72H77.3906V0.28H82.9466Z" fill="#A69F93"/>
<path d="M101.388 0.28L105.896 9.044H105.96L110.468 0.28H116.5L108.627 12.88V20.72H103.071V12.88L95.2288 0.28H101.388Z" fill="#A69F93"/>
<path d="M153.449 11.9H145.416V20.72H140.019V0.28H145.416V8.288H153.449V0.28H158.846V20.72H153.449V11.9Z" fill="#A69F93"/>
<path d="M170.713 2.828C172.851 0.942666 175.708 0 179.285 0C182.862 0 185.709 0.942666 187.825 2.828C189.963 4.71333 191.032 7.27067 191.032 10.5C191.032 13.7293 189.963 16.2867 187.825 18.172C185.709 20.0573 182.862 21 179.285 21C175.708 21 172.851 20.0573 170.713 18.172C168.596 16.2867 167.538 13.7293 167.538 10.5C167.538 7.27067 168.596 4.71333 170.713 2.828ZM174.682 15.4C175.782 16.52 177.317 17.08 179.285 17.08C181.253 17.08 182.777 16.52 183.857 15.4C184.957 14.28 185.508 12.6467 185.508 10.5C185.508 8.35333 184.957 6.72 183.857 5.6C182.777 4.48 181.253 3.92 179.285 3.92C177.317 3.92 175.782 4.48 174.682 5.6C173.602 6.72 173.062 8.35333 173.062 10.5C173.062 12.6467 173.602 14.28 174.682 15.4Z" fill="#A69F93"/>
<path d="M199.713 0.42C201.914 0.14 204.242 0 206.697 0C213.47 0 216.857 2.22133 216.857 6.664C216.857 9.072 216.063 10.9013 214.476 12.152C212.91 13.384 210.602 14 207.555 14C206.793 14 205.946 13.9627 205.015 13.888V20.72H199.713V0.42ZM205.015 10.36C205.692 10.4533 206.359 10.5 207.015 10.5C208.539 10.5 209.714 10.192 210.539 9.576C211.386 8.94133 211.809 8.064 211.809 6.944C211.809 4.72267 210.211 3.612 207.015 3.612C206.316 3.612 205.65 3.668 205.015 3.78V10.36Z" fill="#A69F93"/>
<path d="M225.374 0.42C227.575 0.14 229.903 0 232.359 0C239.132 0 242.518 2.22133 242.518 6.664C242.518 9.072 241.724 10.9013 240.137 12.152C238.571 13.384 236.264 14 233.216 14C232.454 14 231.607 13.9627 230.676 13.888V20.72H225.374V0.42ZM230.676 10.36C231.353 10.4533 232.02 10.5 232.676 10.5C234.2 10.5 235.375 10.192 236.2 9.576C237.047 8.94133 237.47 8.064 237.47 6.944C237.47 4.72267 235.872 3.612 232.676 3.612C231.978 3.612 231.311 3.668 230.676 3.78V10.36Z" fill="#A69F93"/>
<path d="M256.432 4.116V8.288H265.227V11.9H256.432V16.884H265.862V20.72H251.035V0.28H265.862V4.116H256.432Z" fill="#A69F93"/>
<path d="M275.673 20.72V0.28H280.943L289.166 12.824H289.23V0.28H294.5V20.72H289.23L281.007 8.176H280.943V20.72H275.673Z" fill="#A69F93"/>
</svg>
