<svg width="63" height="76" viewBox="0 0 63 76" fill="none" xmlns="http://www.w3.org/2000/svg">
<path d="M0 0.436783C0 0.195555 0.195875 0 0.4375 0H14.4375C14.6791 0 14.875 0.195554 14.875 0.436782V75.5632C14.875 75.8045 14.6791 76 14.4375 76H0.4375C0.195876 76 0 75.8045 0 75.5632V0.436783Z" fill="#A69F93"/>
<path d="M48.125 0.436783C48.125 0.195555 48.3209 0 48.5625 0H62.5625C62.8041 0 63 0.195554 63 0.436782V75.5632C63 75.8045 62.8041 76 62.5625 76H48.5625C48.3209 76 48.125 75.8045 48.125 75.5632V0.436783Z" fill="#A69F93"/>
<path d="M21 28.3908C21 28.1496 21.1959 27.954 21.4375 27.954H41.5625C41.8041 27.954 42 28.1496 42 28.3908V48.4828C42 48.724 41.8041 48.9195 41.5625 48.9195H21.4375C21.1959 48.9195 21 48.724 21 48.4828V28.3908Z" fill="#A69F93"/>
<path d="M28.413 42.9444L28.224 39.0238L35.259 31.623H39.039L32.697 38.4368L30.807 40.4495L28.413 42.9444ZM25.368 46.2989V31.623H28.749V46.2989H25.368ZM35.427 46.2989L30.198 39.9044L32.424 37.4933L39.396 46.2989H35.427Z" fill="white"/>
</svg>
